<?xml version="1.0" standalone="no"?>
<!DOCTYPE svg PUBLIC "-//W3C//DTD SVG 20010904//EN"
 "http://www.w3.org/TR/2001/REC-SVG-20010904/DTD/svg10.dtd">
<svg version="1.0" xmlns="http://www.w3.org/2000/svg"
 width="2395.000000pt" height="2395.000000pt" viewBox="0 0 2395.000000 2395.000000"
 preserveAspectRatio="xMidYMid meet">

<g transform="translate(0.000000,2395.000000) scale(0.100000,-0.100000)"
fill="#000000" stroke="none">
<path d="M5987 17962 c-3287 -3287 -5977 -5982 -5977 -5987 0 -6 2691 -2701
5980 -5990 l5980 -5980 5985 5985 5985 5985 -5982 5982 c-3291 3291 -5985
5983 -5988 5983 -3 0 -2695 -2690 -5983 -5978z m10986 -1010 l4997 -4997
-4305 -4305 -4305 -4305 0 965 0 965 3335 3335 3335 3335 -4023 4023 -4022
4022 -4025 -4025 -4025 -4025 3333 -3333 3332 -3332 0 -975 0 -975 -4315 4315
-4315 4315 4997 4997 c2749 2749 5000 4998 5003 4998 3 0 2254 -2249 5003
-4998z m-4445 135 l542 -542 -165 -165 -165 -165 0 -985 0 -985 757 -757 758
-758 865 0 865 0 165 165 165 165 543 -543 542 -542 -543 -543 -542 -542 -165
165 -165 165 -830 0 -830 0 -792 -792 -792 -793 -3 -3457 -3 -3458 -382 -382
-383 -383 -370 370 -370 370 0 3470 0 3470 -792 792 -793 793 -860 0 -860 0
-182 -182 -183 -183 -543 543 -542 542 545 545 545 545 150 -150 150 -150 920
0 920 0 762 762 763 763 0 980 0 980 -167 167 -168 168 540 540 c297 297 542
540 545 540 3 0 249 -244 548 -543z"/>
<path d="M11395 12480 l-540 -540 543 -543 542 -542 542 542 543 543 -540 540
c-297 297 -542 540 -545 540 -3 0 -248 -243 -545 -540z"/>
</g>
</svg>
